<?xml version="1.0" encoding="UTF-8" standalone="no"?>
<!-- Created with Inkscape (http://www.inkscape.org/) -->

<svg
        xmlns:dc="http://purl.org/dc/elements/1.1/"
        xmlns:cc="http://creativecommons.org/ns#"
        xmlns:rdf="http://www.w3.org/1999/02/22-rdf-syntax-ns#"
        xmlns="http://www.w3.org/2000/svg"
        xmlns:sodipodi="http://sodipodi.sourceforge.net/DTD/sodipodi-0.dtd"
        xmlns:inkscape="http://www.inkscape.org/namespaces/inkscape"
        width="136.98447mm"
        height="136.98273mm"
        viewBox="0 0 136.98447 136.98273"
        version="1.1"
        id="svg8"
        sodipodi:docname="dart_data_plugin_icon.svg"
        inkscape:version="0.92.4 (5da689c313, 2019-01-14)">
    <defs
            id="defs2"/>
    <sodipodi:namedview
            id="base"
            pagecolor="#ffffff"
            bordercolor="#666666"
            borderopacity="1.0"
            inkscape:pageopacity="0.0"
            inkscape:pageshadow="2"
            inkscape:zoom="0.49497475"
            inkscape:cx="403.77095"
            inkscape:cy="87.964665"
            inkscape:document-units="mm"
            inkscape:current-layer="g3784"
            showgrid="false"
            inkscape:window-width="1920"
            inkscape:window-height="1017"
            inkscape:window-x="1072"
            inkscape:window-y="-8"
            inkscape:window-maximized="1"/>
    <metadata
            id="metadata5">
        <rdf:RDF>
            <cc:Work
                    rdf:about="">
                <dc:format>image/svg+xml</dc:format>
                <dc:type
                        rdf:resource="http://purl.org/dc/dcmitype/StillImage"/>
            </cc:Work>
        </rdf:RDF>
    </metadata>
    <g
            inkscape:label="Layer 1"
            inkscape:groupmode="layer"
            id="layer1"
            transform="translate(-38.148305,-71.354092)">
        <g
                id="g3784"
                transform="matrix(0.26458333,0,0,0.26458333,77.466222,118.421)">


            <g
                    id="g3782"
                    transform="matrix(3.4210391,0,0,3.4210391,-141.7838,-158.10293)">
                <path
                        id="path3759"
                        d="M 31.65,109.5 8.38,86.23 C 5.62,83.4 3.91,79.4 3.91,75.49 3.91,73.68 4.93,70.85 5.7,69.23 L 27.18,24.49 Z"
                        inkscape:connector-curvature="0"
                        style="fill:#01579b"/>

                <path
                        id="path3761"
                        d="M 111.3,28.96 88.03,5.69 C 86,3.65 81.77,1.22 78.19,1.22 c -3.08,0 -6.1,0.62 -8.05,1.79 L 27.19,24.49 Z"
                        inkscape:connector-curvature="0"
                        style="fill:#40c4ff"/>

                <polygon
                        id="polygon3763"
                        points="35.23,113.08 59.39,137.24 115.77,137.24 115.77,113.08 73.71,99.65 "
                        style="fill:#40c4ff"/>

                <path
                        id="path3765"
                        d="m 27.18,96.97 c 0,7.18 0.9,8.94 4.47,12.53 l 3.58,3.58 h 80.54 L 76.4,68.34 27.18,24.49 Z"
                        inkscape:connector-curvature="0"
                        style="fill:#29b6f6"/>

                <path
                        id="path3767"
                        d="M 98.77,24.48 H 27.18 l 88.59,88.59 h 24.16 V 57.59 L 111.29,28.95 c -4.02,-4.03 -7.59,-4.47 -12.52,-4.47 z"
                        inkscape:connector-curvature="0"
                        style="fill:#01579b"/>

                <path
                        id="path3769"
                        d="M 32.55,110.39 C 28.97,106.8 28.08,103.26 28.08,96.97 V 25.38 l -0.89,-0.89 v 72.48 c -0.01,6.29 -0.01,8.03 5.36,13.42 l 2.68,2.68 v 0 z"
                        enable-background="new    "
                        inkscape:connector-curvature="0"
                        style="opacity:0.2;fill:#ffffff"/>

                <polygon
                        id="polygon3771"
                        points="139.04,112.18 114.88,112.18 115.77,113.08 139.93,113.08 139.93,57.59 139.04,56.7 "
                        enable-background="new    "
                        style="opacity:0.2;fill:#263238"/>

                <path
                        id="path3773"
                        d="m 111.3,28.96 c -4.44,-4.44 -8.07,-4.47 -13.42,-4.47 H 27.19 l 0.89,0.89 h 69.8 c 2.67,0 9.41,-0.45 13.42,3.58 z"
                        enable-background="new    "
                        inkscape:connector-curvature="0"
                        style="opacity:0.2;fill:#ffffff"/>


                <radialGradient
                        gradientUnits="userSpaceOnUse"
                        gradientTransform="matrix(1,0,0,-1,0,131.4443)"
                        r="68"
                        cy="62.217098"
                        cx="71.915001"
                        id="SVGID_1_">
                    <stop
                            id="stop3775"
                            style="stop-color:#FFFFFF;stop-opacity:0.1"
                            offset="0"/>

                    <stop
                            id="stop3777"
                            style="stop-color:#FFFFFF;stop-opacity:0"
                            offset="1"/>

                </radialGradient>

                <path
                        id="path3780"
                        d="M 139.04,56.7 111.3,28.96 88.03,5.69 C 86,3.65 81.77,1.22 78.19,1.22 c -3.08,0 -6.1,0.62 -8.05,1.79 L 27.19,24.49 5.71,69.23 c -0.77,1.63 -1.79,4.46 -1.79,6.26 0,3.91 1.72,7.9 4.47,10.74 l 21.44,21.29 c 0.51,0.63 1.11,1.27 1.82,1.98 l 0.89,0.89 2.68,2.68 23.27,23.27 0.89,0.89 h 55.48 0.89 v -24.16 h 24.16 v -0.06 -55.42 z"
                        enable-background="new    "
                        inkscape:connector-curvature="0"
                        style="opacity:0.2;fill:url(#SVGID_1_)"/>

            </g>

            <g
                    id="g3909"
                    transform="matrix(-0.61131215,0,0,0.61131215,244.89528,-75.221297)"
                    style="fill:#ffffff">
                <g
                        id="g3853"
                        style="fill:#ffffff">
                    <path
                            id="path3851"
                            d="m 91.466,1.163 c -5.2,0.8 -7.3,7.1 -3.6,10.8 l 32.5,32.5 c 15.4,15.4 15.4,40.4 0,55.9 l -20,20 c -15.4,15.4 -40.4,15.4 -55.9,0 l -32.5,-32.5 c -3.7,-3.7 -10,-1.6 -10.8,3.6 -4.8,32.5 5.2,66.8 30.3,91.8 24.5,24.5 58,34.7 90,30.5 14.1,-1.9 28.2,2.9 38.2,12.9 l 242.9,242.9 c 18.5,18.5 48.4,18.4 66.9,-0.1 18.5,-18.5 18.6,-48.5 0.1,-66.9 l -242.9,-243 c -10,-10 -14.8,-24.1 -12.9,-38.2 4.2,-31.9 -6,-65.4 -30.5,-90 -25.1,-24.9 -59.4,-35 -91.8,-30.2 z m 350.1,420.9 c 5.4,5.4 5.4,14.1 0,19.5 -5.4,5.4 -14.1,5.4 -19.5,0 l -247.8,-247.8 c -5.4,-5.4 -5.4,-14.1 0,-19.5 5.4,-5.4 14.1,-5.4 19.5,0 z"
                            inkscape:connector-curvature="0"
                            style="fill:#ffffff"/>

                </g>
                <g
                        id="g3855"
                        style="fill:#ffffff">
                </g>
                <g
                        id="g3857"
                        style="fill:#ffffff">
                </g>
                <g
                        id="g3859"
                        style="fill:#ffffff">
                </g>
                <g
                        id="g3861"
                        style="fill:#ffffff">
                </g>
                <g
                        id="g3863"
                        style="fill:#ffffff">
                </g>
                <g
                        id="g3865"
                        style="fill:#ffffff">
                </g>
                <g
                        id="g3867"
                        style="fill:#ffffff">
                </g>
                <g
                        id="g3869"
                        style="fill:#ffffff">
                </g>
                <g
                        id="g3871"
                        style="fill:#ffffff">
                </g>
                <g
                        id="g3873"
                        style="fill:#ffffff">
                </g>
                <g
                        id="g3875"
                        style="fill:#ffffff">
                </g>
                <g
                        id="g3877"
                        style="fill:#ffffff">
                </g>
                <g
                        id="g3879"
                        style="fill:#ffffff">
                </g>
                <g
                        id="g3881"
                        style="fill:#ffffff">
                </g>
                <g
                        id="g3883"
                        style="fill:#ffffff">
                </g>
            </g>
        </g>
    </g>
</svg>
